# Blender v2.82 (sub 7) OBJ File: 'waves-at-matsushima.blend'
# www.blender.org
mtllib waves-at-matsushima.mtl
o waves_at_matsushima_colour
v -4.827110 2.269639 -0.161288
v 4.855008 2.269639 -0.185106
v -4.827110 -2.269639 -0.161288
v 4.855008 -2.269639 -0.185107
v -0.000354 2.269639 0.268883
v 0.010685 -2.269639 0.267430
v 1.585456 2.269639 -0.162737
v 1.574417 -2.269639 -0.164190
v 3.175683 2.269639 0.263363
v 3.186721 -2.269639 0.261909
v -1.599012 -2.269639 -0.163457
v -1.587973 2.269639 -0.162003
v -3.166805 2.269639 0.269286
v -3.155764 -2.269639 0.267832
v 4.832926 -2.269639 -0.267518
v 4.832926 2.269639 -0.267518
v -3.166805 2.269639 0.183967
v -4.805028 2.269639 -0.243700
v -4.805028 -2.269639 -0.243700
v 3.164639 -2.269639 0.179498
v 1.585456 2.269639 -0.248056
v -0.000353 2.269639 0.183564
v -1.576930 -2.269639 -0.245868
v -0.011397 -2.269639 0.185018
v 3.175683 2.269639 0.178044
v 1.596499 -2.269639 -0.246602
v -3.177846 -2.269639 0.185420
v -1.587973 2.269639 -0.247322
vt 0.003889 0.546072
vt 0.170670 0.546072
vt 0.170670 0.997314
vt 0.003889 0.997314
vt 0.498488 0.997314
vt 0.498488 0.546072
vt 0.662479 0.546072
vt 0.662479 0.997314
vt 0.827119 0.546072
vt 0.827119 0.997314
vt 0.996305 0.546072
vt 0.996305 0.997314
vt 0.334137 0.997314
vt 0.334137 0.546072
vt 0.995694 0.102819
vt 0.995694 0.546315
vt 0.827973 0.546315
vt 0.827973 0.102819
vt 0.499324 0.546315
vt 0.335637 0.546315
vt 0.335637 0.102819
vt 0.499324 0.102819
vt 0.171737 0.546315
vt 0.171737 0.102819
vt 0.004883 0.546315
vt 0.004883 0.102819
vt 0.663422 0.546315
vt 0.663422 0.102819
vt 0.498431 0.995223
vt 0.498431 0.994054
vt 0.662726 0.994516
vt 0.662726 0.995685
vt 0.176637 0.995223
vt 0.176637 0.994054
vt 0.340443 0.994054
vt 0.340443 0.995223
vt 0.993306 0.549380
vt 0.995270 0.549380
vt 0.994860 0.995282
vt 0.992554 0.995282
vt 0.499907 0.105581
vt 0.499907 0.104094
vt 0.663797 0.104094
vt 0.663797 0.105581
vt 0.827264 0.995838
vt 0.827264 0.994669
vt 0.994980 0.995131
vt 0.994980 0.996300
vt 0.003664 0.992295
vt 0.006105 0.992295
vt 0.006200 0.550396
vt 0.003849 0.550396
vt 0.009055 0.105969
vt 0.009055 0.104482
vt 0.172653 0.104094
vt 0.172653 0.105581
vt 0.004791 0.995223
vt 0.004791 0.994054
vt 0.170485 0.994054
vt 0.170485 0.995223
vt 0.827978 0.105581
vt 0.827978 0.104094
vt 0.992507 0.104094
vt 0.992507 0.105581
vt 0.334444 0.995223
vt 0.334444 0.994054
vt 0.336063 0.105581
vt 0.336063 0.104094
vn -0.2499 -0.0005 0.9683
vn 0.2643 -0.0003 0.9644
vn -0.2572 -0.0003 0.9664
vn 0.2584 0.0002 0.9660
vn -0.2602 -0.0003 0.9655
vn 0.2652 -0.0003 0.9642
vn 0.2538 -0.0005 -0.9673
vn -0.2609 -0.0003 -0.9654
vn 0.2605 -0.0003 -0.9655
vn -0.2592 0.0002 -0.9658
vn 0.2636 -0.0003 -0.9646
vn -0.2618 -0.0003 -0.9651
vn 0.0000 1.0000 0.0000
vn 0.9659 0.0000 -0.2588
vn -0.0000 -1.0000 0.0000
vn -0.9659 0.0000 -0.2588
usemtl waves_at_matsushima_colour
s off
f 3/1/1 14/2/1 13/3/1 1/4/1
f 5/5/2 6/6/2 8/7/2 7/8/2
f 7/8/3 8/7/3 10/9/3 9/10/3
f 9/10/4 10/9/4 4/11/4 2/12/4
f 12/13/5 11/14/5 6/6/5 5/5/5
f 13/3/6 14/2/6 11/14/6 12/13/6
f 19/15/7 18/16/7 17/17/7 27/18/7
f 22/19/8 21/20/8 26/21/8 24/22/8
f 21/20/9 25/23/9 20/24/9 26/21/9
f 25/23/10 16/25/10 15/26/10 20/24/10
f 28/27/11 22/19/11 24/22/11 23/28/11
f 17/17/12 28/27/12 23/28/12 27/18/12
f 5/29/13 22/30/13 28/31/13 12/32/13
f 9/33/13 25/34/13 21/35/13 7/36/13
f 4/37/14 15/38/14 16/39/14 2/40/14
f 6/41/15 24/42/15 26/43/15 8/44/15
f 13/45/13 17/46/13 18/47/13 1/48/13
f 12/32/13 28/31/13 17/46/13 13/45/13
f 1/49/16 18/50/16 19/51/16 3/52/16
f 3/53/15 19/54/15 27/55/15 14/56/15
f 2/57/13 16/58/13 25/59/13 9/60/13
f 10/61/15 20/62/15 15/63/15 4/64/15
f 8/44/15 26/43/15 20/62/15 10/61/15
f 7/65/13 21/66/13 22/30/13 5/29/13
f 11/67/15 23/68/15 24/42/15 6/41/15
f 14/56/15 27/55/15 23/68/15 11/67/15
